<?xml version="1.0" encoding="UTF-8"?>
<svg id="Layer_2" data-name="Layer 2" xmlns="http://www.w3.org/2000/svg" viewBox="0 0 68.01 68.1">
  <defs>
    <style>
      .cls-1 {
        fill: #4f5c4d;
      }
    </style>
  </defs>
  <g id="Layer_1-2" data-name="Layer 1">
    <g>
      <path class="cls-1" d="M67.69,38.65c.08-.47.18-1.54.25-2.55.05-.81.06-1.57.06-1.94,0-2.26-.19-4.39-.63-6.68-.27-1.44-.67-2.91-1.16-4.37-.89-2.67-2.16-5.29-3.72-7.65-.9-1.37-2.17-3.02-3.31-4.21,0,0-1.61-2.05-4.4-4.15-2.04-1.54-4.65-3.21-7.5-4.4-2.89-1.21-5.89-2.06-8.93-2.42-1.77-.21-3.6-.32-5.42-.26-2.12.06-4.25.31-6.38.79-1.48.33-2.95.77-4.41,1.31-.33.12-.64.24-.97.38l.49.78s7.93-4.33,17.95-1.51c4.75,1.34,9.22,3.99,12.59,7.87,5.66,6.53,8.06,15.78,8.27,24.04,0,.23-.04,2.1-.04,3.05h-29.37s0,1.95,0,1.95c0,0,36.61.04,36.62-.02Z"/>
      <path class="cls-1" d="M.09,36.73c-.27-3.75.08-7.51.94-11.23l.17-.64.16-.55.27-.87.41-1.17.75-1.91,1.14-2.29s.87-1.58.87-1.58c.72-1.31,1.62-2.54,2.64-3.63v.56s.4,23.35.4,23.35l13.51-.09v2s-13.48-.04-13.48.02c0,.16.04,2.14.38,3.85,1.1,5.42,4,9.83,7.59,14.07,1.63,1.92,3.5,3.57,5.51,5.07v4s-2.83-1.17-4.68-2.29c0,0-3.3-2.07-5.01-3.6-5.33-4.77-9.18-10.98-10.81-17.97-.4-1.7-.65-3.4-.78-5.11Z"/>
      <path class="cls-1" d="M31.18,68v-2.26s3.08.61,6.25.32c6.1-.55,12.4-3.54,16.1-8.57,0,0,.45-.53,1-1.29.35-.49.72-1.06,1.06-1.58.55-.83.93-1.57,1.01-1.77h5.73s-.73,1.19-2.02,2.74c-.34.41-.72.86-1.13,1.31-1.59,1.73-3.76,3.74-6.1,5.3,0,0-1.13.78-2.65,1.63-1.21.68-2.69,1.39-3.99,1.9,0,0-6.15,2.93-15.26,2.28Z"/>
    </g>
  </g>
</svg>