<?xml version="1.0" encoding="UTF-8"?>
<svg id="Layer_2" data-name="Layer 2" xmlns="http://www.w3.org/2000/svg" viewBox="0 0 674.82 139.92">
  <defs>
    <style>
      .cls-1, .cls-2 {
        fill: #fff;
      }

      .cls-2 {
        font-family: SegoeUIVariable, 'Segoe UI Variable';
        font-size: 26.47px;
        font-variation-settings: 'wght' 400, 'opsz' 10;
      }
    </style>
  </defs>
  <g id="Layer_1-2" data-name="Layer 1">
    <g>
      <g>
        <g>
          <path class="cls-1" d="M9.44,78.23h43.57s-1.82,2.42-1.82,2.42H0S0,.24,0,.24h53.41s-2.09,2.12-2.09,2.12H9.44s.02,30.96.02,30.96h42.83s-1.67,2.1-1.67,2.1H9.45s-.02,42.81-.02,42.81Z"/>
          <path class="cls-1" d="M116.58,78.54c-.7.8-1.4,1.61-1.83,2.1h-48.94s0-77.01,0-77.01l.03-3.47h3.64s0,0,0,0h5.9s0,78.37,0,78.37h41.2Z"/>
          <path class="cls-1" d="M136.04,78.23h43.57s-1.82,2.42-1.82,2.42h-51.19s0-80.4,0-80.4h53.41s-2.09,2.12-2.09,2.12h-41.88s.02,30.96.02,30.96h42.83s-1.67,2.1-1.67,2.1h-41.16s-.02,42.81-.02,42.81Z"/>
          <path class="cls-1" d="M257.57.2l-31.2,80.02-.15.42h-9.65S185.28.2,185.28.2h10.46s29.79,76.1,29.79,76.1L253.47,4.26l1.64-4.06h2.46Z"/>
          <path class="cls-1" d="M325.37,80.65h-10.57s-5.42-13.91-5.42-13.91l-1.67-3.99h-45.94s-7.31,17.89-7.31,17.89h-2.32s30.96-76.49,30.96-76.49l1.5-3.85h9.21s31.22,79.46,31.22,79.46l.35.89ZM306.94,60.64l-21.98-56.23-21.24,53.33-1.09,2.89h44.3Z"/>
          <path class="cls-1" d="M386.42,57.47l-1.59.74,14.8,22.43h-11.93s-10.3-16.22-10.3-16.22c-1.54-2.44-4.34-3.91-7.16-3.84-.78.02-1.56.03-2.23.03h-21.72s0,20.03,0,20.03h-9.63s0-77.04,0-77.04V.31s31.35,0,31.35,0c18.56,0,34.85,13.87,34.85,29.68v.93c0,11.43-5.07,20.47-14.26,25.45-1.11.59-2.17,1.09-2.18,1.09ZM393.17,30.97v-1.03c0-16.83-10.35-28.57-25.16-28.57h-21.72s0,58.17,0,58.17h21.72c14.82,0,25.16-11.75,25.16-28.57Z"/>
          <path class="cls-1" d="M427.11,78.23h43.57s-1.82,2.42-1.82,2.42h-51.19s0-80.4,0-80.4h53.41s-2.09,2.12-2.09,2.12h-41.88s.02,30.96.02,30.96h42.83s-1.67,2.1-1.67,2.1h-41.16s-.02,42.81-.02,42.81Z"/>
        </g>
        <g>
          <path class="cls-1" d="M674.82,40.31c0,21.43-18.55,40.22-39.7,40.22-21.39,0-39.46-18.41-39.46-40.2,0-21.8,18.07-40.21,39.46-40.21,21.15,0,39.7,18.78,39.7,40.19ZM665.45,34.1c-3.74-21.07-19.28-34.23-36.96-31.27-7.17,1.2-13.22,5.03-17.49,11.09-5.78,8.19-7.86,19.82-5.72,31.9,3.45,19.5,16.45,32.39,31.81,32.39,1.53,0,3.09-.13,4.67-.39,7.17-1.2,13.27-5.12,17.66-11.34,5.98-8.48,8.18-20.28,6.04-32.38Z"/>
          <path class="cls-1" d="M570.96,56.47c9.26-5.02,14.36-14.12,14.36-25.63v-.94c0-15.93-16.4-29.9-35.1-29.9h-20.33s-5.4,0-5.4,0h-48.73s-.06,0-.06,0h-1.1s-1.13,2.14-1.13,2.14h34.6s.07,78.46.07,78.46h7.7s-.07-79.62-.07-79.62l8.69-.02h6.14s19.55,0,19.55,0c14.92,0,25.42,11.92,25.42,28.86v1.04c0,16.94-11.52,27.98-25.32,28.51l-24.53.13v1.08s24.49-.12,24.49-.12c.67,0,1.46-.01,2.24-.03,2.89-.06,5.67,1.67,7.23,4.13l10.18,16.09h12.32s-15.02-22.34-15.02-22.34l1.6-.75s1.08-.5,2.2-1.1Z"/>
        </g>
      </g>
      <text class="cls-2" transform="translate(0 131.89) scale(.97 1)"><tspan x="0" y="0">CONTRACTING </tspan></text>
    </g>
  </g>
</svg>